# xmcd CD database file
#
# Track frame offsets:
#	150
#	16845
#	28908
#
# Disc length: 650 seconds
#
# Revision: 0
# Processed by: cddbd v1.5.1PL0 Copyright (c) Steve Scherf et al.
# Submitted via: CDex 1.51
#
DISCID=1a028803
DTITLE=つじあやの - 春風
DYEAR=2005
DGENRE=JPop
TTITLE0=春風
TTITLE1=恋はやさしく
TTITLE2=たましい (春らんらん編)
EXTD=YEAR: 2005
EXTT0=
EXTT1=
EXTT2=
PLAYORDER=
